HIERARCHY
ROOT Model_Hips
{
	OFFSET 0.000000 96.915077 0.000000
	CHANNELS 6 Xposition Yposition Zposition Xrotation Yrotation Zrotation
	JOINT Model_Spine
	{
		OFFSET 0.000000 11.137703 -1.289900
		CHANNELS 3 Xrotation Yrotation Zrotation
		JOINT Model_Spine1
		{
			OFFSET 0.000000 12.993942 -1.504922
			CHANNELS 3 Xrotation Yrotation Zrotation
			JOINT Model_Spine2
			{
				OFFSET 0.000000 14.850220 -1.719911
				CHANNELS 3 Xrotation Yrotation Zrotation
				JOINT Model_Neck
				{
					OFFSET 0.000000 16.706543 -1.934903
					CHANNELS 3 Xrotation Yrotation Zrotation
					JOINT Model_Head
					{
						OFFSET 0.000000 10.471298 2.002100
						CHANNELS 3 Xrotation Yrotation Zrotation
						JOINT Model_HeadTop_End
						{
							OFFSET 0.000000 20.842606 3.985100
							CHANNELS 3 Xrotation Yrotation Zrotation
							End Site
							{
								OFFSET 0.000000 21.220154 0.000000
							}
						}
					}
				}
				JOINT Model_LeftShoulder
				{
					OFFSET 7.008500 14.768600 -1.919946
					CHANNELS 3 Xrotation Yrotation Zrotation
					JOINT Model_LeftArm
					{
						OFFSET 14.126271 -3.718048 0.029937
						CHANNELS 3 Xrotation Yrotation Zrotation
						JOINT Model_LeftForeArm
						{
							OFFSET 28.282801 0.000000 0.000000
							CHANNELS 3 Xrotation Yrotation Zrotation
							JOINT Model_LeftHand
							{
								OFFSET 26.204689 0.000000 0.000000
								CHANNELS 3 Xrotation Yrotation Zrotation
								End Site
								{
									OFFSET 26.204704 0.000000 0.000000
								}
							}
						}
					}
				}
				JOINT Model_RightShoulder
				{
					OFFSET -7.008500 14.768555 -1.949840
					CHANNELS 3 Xrotation Yrotation Zrotation
					JOINT Model_RightArm
					{
						OFFSET -14.126281 -3.718018 -0.029932
						CHANNELS 3 Xrotation Yrotation Zrotation
						JOINT Model_RightForeArm
						{
							OFFSET -28.283798 0.000000 -0.000001
							CHANNELS 3 Xrotation Yrotation Zrotation
							JOINT Model_RightHand
							{
								OFFSET -26.204193 0.000000 -0.000001
								CHANNELS 3 Xrotation Yrotation Zrotation
								End Site
								{
									OFFSET -26.204208 0.000000 -0.000001
								}
							}
						}
					}
				}
			}
		}
	}
	JOINT Model_LeftUpLeg
	{
		OFFSET 8.327700 -6.193199 -0.402800
		CHANNELS 3 Xrotation Yrotation Zrotation
		JOINT Model_LeftLeg
		{
			OFFSET 0.735802 -42.108742 -0.610721
			CHANNELS 3 Xrotation Yrotation Zrotation
			JOINT Model_LeftFoot
			{
				OFFSET -0.735806 -36.833748 -0.172876
				CHANNELS 3 Xrotation Yrotation Zrotation
				JOINT Model_LeftToeBase
				{
					OFFSET -0.565857 -11.977769 16.297714
					CHANNELS 3 Xrotation Yrotation Zrotation
					JOINT Model_LeftToe_End
					{
						OFFSET -0.111712 -0.312793 7.857784
						CHANNELS 3 Xrotation Yrotation Zrotation
						End Site
						{
							OFFSET -0.111712 -0.312793 7.857784
						}
					}
				}
			}
		}
	}
	JOINT Model_RightUpLeg
	{
		OFFSET -8.327700 -6.193199 -0.516500
		CHANNELS 3 Xrotation Yrotation Zrotation
		JOINT Model_RightLeg
		{
			OFFSET -0.735785 -42.108738 -0.434061
			CHANNELS 3 Xrotation Yrotation Zrotation
			JOINT Model_RightFoot
			{
				OFFSET 0.735776 -36.833748 -0.021630
				CHANNELS 3 Xrotation Yrotation Zrotation
				JOINT Model_RightToeBase
				{
					OFFSET 0.565817 -11.977745 15.903093
					CHANNELS 3 Xrotation Yrotation Zrotation
					JOINT Model_RightToe_End
					{
						OFFSET 0.111702 -0.312791 7.811342
						CHANNELS 3 Xrotation Yrotation Zrotation
						End Site
						{
							OFFSET 0.111702 -0.312791 7.811342
						}
					}
				}
			}
		}
	}
}
MOTION
Frames: 7
Frame Time: 0.016667
-0.184628 95.910164 0.722266 1.018667 2.684805 -1.539372 0.193011 0.358989 0.266579 0.384980 0.692414 0.496923 0.384980 0.692416 0.496922 -0.000368 -0.152066 -0.402849 -0.000366 -0.152064 -0.402849 -0.000000 0.000001 -0.000000 0.546338 -14.779643 -16.719021 -6.085803 6.471311 -50.651382 18.149223 -31.939037 -5.078711 -0.000002 -0.000002 0.000002 1.417833 7.418190 17.752879 0.623263 -19.220125 55.031049 11.687451 24.821879 10.776473 -0.000002 -0.000001 0.000000 -25.015506 5.990550 6.634609 65.159916 -1.017117 0.780103 -3.435784 0.473001 -1.303519 -11.409963 -1.753246 -0.604565 -0.000002 -0.000000 0.000000 -9.951031 -8.689134 2.866451 20.940752 7.913191 -0.007781 -11.354271 0.621426 -4.782615 -4.894228 -0.667435 0.583832 0.000000 -0.000000 0.000000 
-0.239635 96.218124 3.264882 1.036578 1.994645 -1.465878 0.202061 0.518637 0.141604 0.402802 1.030800 0.284786 0.402800 1.030803 0.284786 0.018816 -0.194889 -0.225559 0.018816 -0.194886 -0.225559 0.000000 -0.000000 -0.000000 0.656575 -14.393372 -16.337556 -4.621612 9.008311 -52.102387 17.406638 -31.463594 -4.750170 0.000005 0.000000 0.000000 1.421097 7.598120 17.238735 -0.603050 -20.888363 54.847280 9.864343 30.704982 11.824459 -0.000000 -0.000003 0.000001 -27.002502 5.963973 6.350671 62.181387 -0.033208 0.273866 -5.009648 0.489597 -1.076762 -8.106711 -0.975005 -0.918045 0.000000 -0.000000 -0.000000 -7.811558 -9.001091 2.994237 20.157724 8.356074 0.013914 -11.728114 0.725308 -5.162203 -5.142469 -0.681673 0.546017 0.000000 -0.000000 0.000000 
-0.303281 96.439392 5.845019 1.019681 1.349811 -1.505099 0.213634 0.667789 0.054131 0.425717 1.349875 0.145007 0.425715 1.349876 0.145007 0.185045 -0.205393 -0.152663 0.185048 -0.205396 -0.152662 0.000000 0.000000 -0.000000 0.863013 -13.532259 -15.845412 -3.195015 10.284136 -53.447904 17.211682 -30.374517 -4.510823 -0.000000 -0.000001 0.000001 1.326016 8.196590 16.980359 -2.309790 -21.673478 54.338478 8.124859 34.691070 13.057548 -0.000001 0.000001 0.000000 -28.512123 5.871597 6.087694 58.020333 1.114502 -0.037418 -6.237665 0.481477 -0.834003 -4.473362 -0.315241 -0.466526 -0.000000 0.000000 -0.000000 -5.588396 -9.321546 3.123338 19.238816 8.879062 0.118004 -11.927564 0.807544 -5.271397 -5.178826 -0.680230 0.436510 0.000000 -0.000000 0.000000 
-0.352748 96.471848 8.371439 0.971786 0.754315 -1.601819 0.270766 0.805868 -0.024915 0.540390 1.649265 0.002187 0.540391 1.649268 0.002186 0.172495 -0.260116 0.072525 0.172497 -0.260116 0.072525 0.000000 -0.000000 0.000000 0.925419 -13.224612 -15.788665 -1.134141 11.837009 -54.020178 17.522364 -30.724315 -4.223450 -0.000000 -0.000002 0.000001 1.361070 8.304607 16.286055 -4.424834 -20.540481 54.051505 6.897422 37.112738 14.057675 0.000000 0.000000 -0.000000 -29.489482 5.388658 5.624049 53.092867 2.657642 -0.154413 -7.327436 0.475619 -0.711697 -6.122083 4.072521 -3.885304 0.000001 -0.000002 0.000001 -3.737103 -9.647391 3.182850 19.136600 9.412154 0.277056 -12.616491 0.912276 -5.487284 -5.247184 -0.709811 0.400272 0.000000 -0.000000 0.000000 
-0.380716 96.384567 10.902168 0.889625 0.236261 -1.728955 0.328116 0.926787 -0.045443 0.655563 1.917298 -0.046963 0.655562 1.917297 -0.046962 0.200899 -0.286359 0.179146 0.200904 -0.286360 0.179146 0.000000 0.000001 -0.000000 0.948905 -13.007842 -16.007544 0.995815 13.154623 -54.522450 18.063306 -31.001368 -3.916467 0.000001 -0.000001 0.000001 1.345721 8.622751 15.769051 -6.461314 -19.049488 53.276729 6.092590 39.275377 14.703164 -0.000000 0.000000 -0.000000 -30.547550 5.176096 5.518763 48.315843 3.631023 -0.429296 -8.406755 0.399087 -0.095096 -5.532261 3.715036 -3.564620 0.000001 -0.000001 0.000000 -1.922461 -9.971756 3.154014 19.221068 9.957733 0.548740 -13.501464 1.051462 -5.764525 -5.318186 -0.791471 0.462251 0.000000 -0.000000 0.000000 
-0.390850 96.177834 13.565292 0.784868 -0.191472 -1.848177 0.344168 1.028180 -0.058357 0.688611 2.149426 -0.094278 0.688609 2.149425 -0.094280 0.400432 -0.315014 0.304605 0.400432 -0.315016 0.304605 0.000000 -0.000000 -0.000000 1.135225 -12.145803 -15.688839 2.507159 13.855991 -55.617681 18.476869 -30.070430 -3.994150 0.000001 0.000000 -0.000000 1.332003 8.917124 15.312871 -8.497147 -17.367954 52.582590 5.274816 40.636497 15.067554 -0.000002 -0.000000 0.000000 -31.288721 4.859476 5.285024 43.016794 4.486787 -0.506259 -8.875044 0.327920 0.530645 -5.470070 2.761708 -2.864127 0.000000 -0.000001 -0.000000 0.001047 -10.498410 2.981207 19.359961 10.746307 0.925931 -14.562791 1.211685 -6.102941 -5.526848 -0.865889 0.453848 0.000000 0.000000 0.000000 
-0.392973 95.864601 16.177917 0.681766 -0.537572 -1.934907 0.382554 1.114787 -0.063716 0.766943 2.354975 -0.143150 0.766941 2.354976 -0.143150 0.527049 -0.337338 0.408846 0.527068 -0.337340 0.408848 -0.000000 0.000000 -0.000000 1.148484 -12.102712 -15.622217 4.487962 14.976026 -56.583698 19.060502 -29.719669 -3.721934 -0.000000 -0.000000 0.000000 1.355242 9.070831 14.734526 -10.561286 -15.002760 52.225747 4.889637 41.274533 14.572851 0.000000 0.000000 0.000000 -31.936469 4.569829 5.045790 37.756480 4.954721 -0.479281 -8.805584 0.267542 1.179000 -4.929812 1.146341 -1.611575 -0.000000 -0.000000 -0.000000 1.737545 -10.852633 2.739660 19.807347 11.363639 1.299556 -15.756403 1.375661 -6.399396 -5.982449 -0.996252 0.532652 -0.000000 0.000000 0.000000 
